<svg width="138" height="153" viewBox="0 0 138 153" fill="none" xmlns="http://www.w3.org/2000/svg">
<g id="ci:double-quotes-l" opacity="0.12">
<path id="Vector" d="M103.147 68.7892C115.758 68.7892 124.257 77.7206 124.257 90.9541C124.257 102.863 114.489 112.784 101.259 112.784C86.7675 112.784 76.0597 100.875 76.0597 82.6852C76.0597 41.3407 105.669 24.8029 124.257 22.8154V41.0054C111.653 43.32 97.4834 56.2182 96.8488 70.4495C97.4834 70.1224 99.9977 68.7892 103.147 68.7892ZM38.8915 68.7892C51.4871 68.7892 59.9939 77.7206 59.9939 90.9541C59.9939 102.863 50.2259 112.784 36.9958 112.784C22.5045 112.784 11.7966 100.875 11.7966 82.6852C11.7966 41.3407 41.4058 24.8029 59.9939 22.8154V41.0054C47.3903 43.32 33.2203 56.2182 32.5857 70.4495C33.2203 70.1224 35.7346 68.7892 38.8915 68.7892Z" fill="white"/>
</g>
</svg>
