<svg xmlns="http://www.w3.org/2000/svg" width="46" height="46" viewBox="0 0 46 46" fill="none">
  <path d="M21.4764 5.03138C21.9608 3.54028 24.0704 3.54028 24.5548 5.03138L27.7394 14.8323C27.956 15.4992 28.5775 15.9507 29.2786 15.9507H39.5839C41.1518 15.9507 41.8037 17.9569 40.5353 18.8785L32.1981 24.9358C31.6308 25.3479 31.3935 26.0784 31.6101 26.7453L34.7946 36.5462C35.2791 38.0373 33.5725 39.2773 32.3041 38.3557L23.9669 32.2984C23.3997 31.8863 22.6315 31.8863 22.0643 32.2984L13.7271 38.3557C12.4587 39.2773 10.7521 38.0373 11.2366 36.5462L14.4211 26.7453C14.6378 26.0784 14.4004 25.3479 13.8331 24.9358L5.49596 18.8785C4.22755 17.9569 4.87943 15.9507 6.44726 15.9507H16.7526C17.4538 15.9507 18.0752 15.4992 18.2918 14.8323L21.4764 5.03138Z" fill="white"/>
</svg>