<svg width="89" height="89" viewBox="0 0 89 89" fill="none" xmlns="http://www.w3.org/2000/svg">
<path id="Vector" d="M44.4999 0.377502C20.1443 0.377502 0.377441 20.1444 0.377441 44.5C0.377441 68.8556 20.1443 88.6225 44.4999 88.6225C68.8555 88.6225 88.6224 68.8556 88.6224 44.5C88.6224 20.1444 68.8555 0.377502 44.4999 0.377502ZM50.7212 71.3706V79.798H38.9405V71.2823C31.3955 69.6939 24.9978 64.8404 24.5124 56.2807H33.1604C33.6017 60.9135 36.7785 64.5316 44.8529 64.5316C53.5009 64.5316 55.4423 60.2076 55.4423 57.5161C55.4423 53.8539 53.5009 50.4124 43.6616 48.0739C32.7192 45.4266 25.2184 40.9261 25.2184 31.881C25.2184 24.2919 31.3514 19.3502 38.9405 17.7176V9.202H50.7212V17.8059C58.928 19.7914 63.0314 26.0127 63.2961 32.7634H54.6481C54.4275 27.8658 51.8242 24.5125 44.8529 24.5125C38.2345 24.5125 34.2635 27.5128 34.2635 31.7486C34.2635 35.4549 37.1315 37.8816 46.0442 40.176C54.9569 42.4703 64.4874 46.309 64.4874 57.4279C64.4433 65.5023 58.3985 69.9145 50.7212 71.3706Z" fill="#5D5DFF"/>
</svg>
