<svg height="512" viewBox="0 0 32 32" width="512" xmlns="http://www.w3.org/2000/svg" xmlns:xlink="http://www.w3.org/1999/xlink"><linearGradient id="linear-gradient" gradientUnits="userSpaceOnUse" x1="15.917" x2="16.083" y1="-.502" y2="32.498"><stop offset="0" stop-color="#08c8f6"/><stop offset="1" stop-color="#4d5dfb"/></linearGradient><g id="lens"><rect fill="url(#linear-gradient)" height="29.5" rx="4.95" width="29.5" x="1.25" y="1.25"/><g fill="#fff"><path d="m16 6.75a9.25 9.25 0 1 1 -9.25 9.25 9.255 9.255 0 0 1 9.25-9.25zm0-1.5a10.75 10.75 0 1 0 10.75 10.75 10.755 10.755 0 0 0 -10.75-10.75z" fill-rule="evenodd"/><path d="m16 12.407a3.593 3.593 0 1 1 -3.593 3.593 3.595 3.595 0 0 1 3.593-3.593zm0-1.5a5.093 5.093 0 1 0 5.093 5.093 5.1 5.1 0 0 0 -5.093-5.093z" fill-rule="evenodd"/><circle cx="20.444" cy="10.444" r="1.121"/></g></g></svg>