<svg width="24" height="24" viewBox="0 0 24 24" fill="none" xmlns="http://www.w3.org/2000/svg">
<g id="instagram-svgrepo-com 1" clip-path="url(#clip0_877_3056)">
<g id="Group">
<path id="Vector" d="M18 2H6C3.8 2 2 3.8 2 6V18C2 20.2 3.8 22 6 22H18C20.2 22 22 20.2 22 18V6C22 3.8 20.2 2 18 2ZM12 17C9.25 17 7 14.75 7 12C7 9.25 9.25 7 12 7C14.75 7 17 9.25 17 12C17 14.75 14.75 17 12 17ZM17.5 7.5C16.95 7.5 16.5 7.05 16.5 6.5C16.5 5.95 16.95 5.5 17.5 5.5C18.05 5.5 18.5 5.95 18.5 6.5C18.5 7.05 18.05 7.5 17.5 7.5Z" fill="black"/>
</g>
</g>
<defs>
<clipPath id="clip0_877_3056">
<rect width="24" height="24" fill="white"/>
</clipPath>
</defs>
</svg>
