<svg xmlns="http://www.w3.org/2000/svg" width="19" height="19" viewBox="0 0 19 19" fill="none">
  <g clip-path="url(#clip0_253_7610)">
    <path d="M16.0289 0.944082L16.2058 0.767144C16.339 0.634046 16.4971 0.528481 16.6711 0.456478C16.8451 0.384476 17.0315 0.347445 17.2198 0.3475C17.4081 0.347555 17.5945 0.384695 17.7684 0.4568C17.9424 0.528904 18.1004 0.634561 18.2335 0.767738C18.3666 0.900915 18.4722 1.059 18.5442 1.23298C18.6162 1.40695 18.6532 1.5934 18.6531 1.78169C18.6531 1.96997 18.6159 2.15641 18.5438 2.33034C18.4717 2.50427 18.3661 2.6623 18.2329 2.79539L18.056 2.97114C18.3586 3.31061 18.52 3.75299 18.507 4.2076C18.4939 4.66222 18.3075 5.09464 17.9859 5.41621L5.76415 17.6391C5.68775 17.7151 5.5921 17.7689 5.48746 17.7947L0.737463 18.9822C0.63806 19.007 0.533944 19.0056 0.435236 18.9782C0.336527 18.9508 0.246584 18.8983 0.174149 18.8259C0.101715 18.7535 0.0492524 18.6635 0.0218623 18.5648C-0.00552791 18.4661 -0.00691419 18.362 0.0178382 18.2626L1.20534 13.5126C1.23132 13.4084 1.28508 13.3132 1.3609 13.2371L12.8108 1.78721C12.6963 1.70661 12.5569 1.66908 12.4174 1.68125C12.2779 1.69342 12.1472 1.7545 12.0484 1.85371L8.13915 5.76414C8.08395 5.81935 8.01841 5.86314 7.94628 5.89302C7.87415 5.92289 7.79685 5.93827 7.71878 5.93827C7.6407 5.93827 7.5634 5.92289 7.49127 5.89302C7.41914 5.86314 7.3536 5.81935 7.2984 5.76414C7.2432 5.70894 7.19941 5.6434 7.16953 5.57128C7.13965 5.49915 7.12428 5.42184 7.12428 5.34377C7.12428 5.2657 7.13965 5.18839 7.16953 5.11626C7.19941 5.04414 7.2432 4.9786 7.2984 4.92339L11.21 1.01414C11.5318 0.69235 11.9646 0.505919 12.4194 0.493111C12.8743 0.480304 13.3169 0.64209 13.6563 0.945269C13.9826 0.653665 14.4048 0.492371 14.8424 0.492152C15.28 0.491933 15.7023 0.652805 16.0289 0.944082ZM15.2642 1.85371C15.1528 1.7424 15.0018 1.67986 14.8444 1.67986C14.6869 1.67986 14.5359 1.7424 14.4246 1.85371L2.31565 13.9603L1.4084 17.5905L5.03859 16.6832L17.1475 4.57664C17.2028 4.52149 17.2467 4.45597 17.2766 4.38383C17.3066 4.3117 17.322 4.23437 17.322 4.15627C17.322 4.07817 17.3066 4.00084 17.2766 3.9287C17.2467 3.85657 17.2028 3.79105 17.1475 3.73589L15.2653 1.85371H15.2642Z" fill="black"/>
  </g>
  <defs>
    <clipPath id="clip0_253_7610">
      <rect width="19" height="19" fill="white"/>
    </clipPath>
  </defs>
</svg>